<svg id="Шар_1" data-name="Шар 1" xmlns="http://www.w3.org/2000/svg" viewBox="0 0 165 158"><defs><style>.cls-1{fill:#fff;}</style></defs><title>Монтажна область 2</title><path class="cls-1" d="M36.87,41.12A41.92,41.92,0,0,0,21.16,57,44,44,0,0,0,15.4,79.11a41.35,41.35,0,0,0,12.65,30.44q12.64,12.58,31,12.58A43.33,43.33,0,0,0,77,118.46v-9.29l-.44.27a35.31,35.31,0,0,1-17.8,4.66,34.74,34.74,0,0,1-34.82-35,35.85,35.85,0,0,1,4.61-18A34.45,34.45,0,0,1,41.38,48.17a34.07,34.07,0,0,1,17.38-4.78,35,35,0,0,1,17.66,4.78l.58.36V39.08a45.61,45.61,0,0,0-18.61-3.72A42.22,42.22,0,0,0,36.87,41.12Z"/><path class="cls-1" d="M150.1,38H137.2L101.87,71.19a41.08,41.08,0,0,0-12.06-23.3A45.25,45.25,0,0,0,85,43.75V55a33.31,33.31,0,0,1,4.33,5.9,34.93,34.93,0,0,1,4.59,17.79,35.83,35.83,0,0,1-4.59,18,33.48,33.48,0,0,1-4.33,6v11a47.46,47.46,0,0,0,4.84-4.22,41.54,41.54,0,0,0,12.1-23.73l35.26,33.11h12.9L106.82,78.45Z"/></svg>